/* XPM */
static char *_26752dc1595450e93d0691bb12bdaebJMt9FLy3UZZurmcH[] = {
/* columns rows colors chars-per-pixel */
"64 64 23 1 ",
"  c gray22",
". c #004040",
"X c #005858",
"o c #006C6C",
"O c #007070",
"+ c #007474",
"@ c #007878",
"# c #007C7C",
"$ c #646464",
"% c #008484",
"& c #008C8C",
"* c #009898",
"= c #009C9C",
"- c #00A4A4",
"; c #00A8A8",
": c #20B0B0",
"> c #20B4B4",
", c #48C0C0",
"< c #74C8C8",
"1 c #9CDCDC",
"2 c #B8E8E8",
"3 c #D8F4F4",
"4 c gray99",
/* pixels */
";;;;;>>>>>,,,>,,,>,>,>,>>>>>>>>>>>>;;;;;;;;;;;;;;;;;;;;;;;;;;;X>",
"-;;<<-;>>>>,>,>,>,,,,,>,>,>,>,>>>>>>>>>>>>>>>>;;;;;;;;;;;<<-;;X>",
"*-<41&#;;>>;>>,>,>,>,,,,,,,>,>,>,>,>,>>>>>>>>>>>>>>>>>>><41&#;X>",
"**<1-&#;;;;>;>>>>>>,>,>,,,,,,,,,,,>,>,>,>,>,>>>>>>>>>>>><1-&#>X>",
"&**-&#;--;;;;;>;>;>>>>,>,>,,,,,,,,,,,,,,,>,>,>,>,>,>>>>>>-&#;;X>",
"&&&**=-----o;;;o;>;o>>>o>,>o>,,o,,,o,,,o,,,o,,>o>,>o>,>,>>>>>>X>",
"&&&&**==-----;;;;;>;>;>>>>>>,>,>,,,,,,,,,,,,,,,,,,,,,>,>,>,>,>X>",
"&&&&&&**==OOOOOOOOOOOOOOOOOOOOOOOOOOOOOOOOOOOOOOOOOO3,,,,,>,>,X>",
"%&&&&&&***OXXXXXXXXOOOOOOOOOOOOOOOOOOOOOOOOOOOOOOOO<3,,,,,,,,,X>",
"%%&::-&&&*OX==*;;;-;;;;;;>;>;>>>>>>>>,>,>,>,,,,,,,,13,,,,<<-;,X>",
"#%:1,&O&&&OX**==;*;*-;;;;;;;>;>;>;>;>>>>,>,>,>,,,,,13,,,<41&#,X:",
"##*,-&O&&&OX&**===*;;;-;;;;;;;;>;>>>>>>>>>>>>,>,>,,13,,,<1-&#,X:",
"###*&OO%&&oX*&***===;*;*-;;;;;;;>;>;>;>;>>>>>>>>,>,13,,,>-&#;,X:",
"###OOO#&%&oX&&*****==;*;;;-;;;;;;;;>;>;>>>>>>>>>>>>13,>,,,,,,,X:",
"@####%%#%%oX&&&&*&***==*;*;*-;;;;;;;;;>;>;>;>>>>>>>13>,>,>,,,,X:",
"@@####%%%%oX&&&&&*&****==;*;;;-;;;;;;;;>;>;>>>>>>>>13>>>>,>,>,X:",
"@@@####%%%oX&&&&&&***&***==*;*;*-;;;;;;;;;>;>>>;>>>13>>>>>>>,>X:",
"@@%**&##%%oX%&%&&&&*&******==;*;;;-;;;;;;;;;;>;>>>>13>>>;<<-;>X-",
"+@*>-&O##%oX%%&%&%&&*&*&****===*;*;*-;;;;;;;;;>;>;>13;>><41&#>X-",
"+@&--@X###oX%%%&%&&&&&&*******===;*;;;-;;;;;;;;;;>;13>>><1-&#>X-",
"++O@OOX@##XX%#%%&%&%&&&&*&*&****===*;*;*-;;;;;;;;;;13;>;>-&#;>X-",
"++oXXXo#@#XX#%%%%&%&&&&&&*********===;*;;;-;;;;;;;;13>;>>>>>>>X-",
"O+++@@@@#@XX##%#%%%%&%&&&&*&*&*&***====*;*;*-;;;;;;13;;;>;>;>;X-",
"O+++@@@@@#XX###%%%%%%&&&&&&*&********====;*;;;-;;;;13;;;;;;>;>X-",
"oO++++@@@@XX####%#%%%%&%&&&&*&*&*&*****====*;*;*-;;13;;;;;;;>;X-",
"oO#*&%+@@@XX#####%%%%%%&%&&&&&&**********====;*;;;-<3;;;;<<-;;X-",
"oo*>*&O+@@XX######%#%%%%&%&&&&&&*&*&******==*==*;*;<3;;;<41&#;X-",
"Oo&*&OX++@XX@######%%%%%%&%&&&&&&*&*********=====;*<2;-;<1-&#;X-",
"+OOOOXX+@@XX#@######%#%%%%&%&&&&&&*&*&********=====<2*;*>-&#;;X-",
"+OoXXXo++@XX@#@######%#%%%%&%&&&&&&&&*&*&*******===<2;*;;;-;;;X-",
"@+OooO++++XX@@#@######%#%%%%%%&%&&&&&&*&**********=<2==*;*;*-;X-",
"@+OooOO+++XX@@@#@######%#%%%%%%&&&&&&&&*&*&********<2=*==;*;;-X*",
"@@+OooO+++XX@@@@#@######%#%%%%%%&%&%&&&&*&*********<2*=====*;*X*",
"@@#&#ooO++XX+@@@@#@######%#%%%%%%&%&&&&&&&&*&******<2***;<<-;-X*",
"@@&-*#OOO+XX++@@@@#@######%#%#%%%%&%&%&&&&&&*&*&***,1***<41&#=X*",
"#@&*&OXoO+XX+++@@@@#@######%#%%%%%%&%&&&&&&&&*&****,1***<1-&#*X*",
"#@OOOXXooOXX++++@@@@#@######%#%#%%%%&%&%&&&&&&*&*&*,1****-&#;=X*",
"##oXXXoooOXX+++@+@@@@#@########%%%%%%&%&&&&&&&&&&*&,1*********X&",
"##@@++OoooXX++++@+@@@@#@######%#%#%%%%&%&%&&&&&&*&*,1*********X&",
"##@@@+OOooXX+++++@+@@@@#@########%%%%%%%%&&&&&&&&&&,<*********X&",
"###@@++OOoXXO+++++@@@@@@#@######%#%#%#%%%%&%&&&&&&&,<&***&****X&",
"##%*&@OOOoXXOO+++++@@@@@@#@########%%%%%%%%&%&&&&&&,<&&*;,,-&*X&",
"%#*>*&O+OOXXoO++++++@@@@@@#@######%#%#%#%%%%&%&&&&&,<&*&,1<&#*X&",
"%#&*&OX+OOXXoOO++++++@@@@@@#@########%%%%%%%%&%&&&&><&&&><<&#*X&",
"%%OOOXX++OXXooOO++++++@@@@@@#@######%#%#%#%%%%&%&&&><&&&&-&#&&X&",
"%%oXXXo++OXXoooO+++++++@@@@@@#@########%#%%%%%%&%&&><&&&&&&*&&X&",
"%%###@@@++XXoooOO+++++@+@@@@@@#@######%#%#%#%%%%&%&>,&&&&&&&*&X&",
"%%%##@@@++XXOoooOO+++++@+@@@@@@#@########%#%%%%%%%%>,&&&&&&&&&X&",
"%%%###@@@+XXOooooO++++++@+@@@@@@#@######%#%#%#%%%%%:,&&&&&&&&&X&",
"%%%*&&#@@+XXOOoooOO++++++@+@@@@@@#@########%#%%%%%%:,&%&&>>-&&X&",
"%%*>*&O@@+XXOOOoooOO++++++@+@@@@@@#@######%#%#%#%%%-,%&%>1,&#&X&",
"%%&*&OX@@@XXOOOooooO+++++++@+@@@@@@#@########%#%%%%->%%&>,-%O&X&",
"&%OOOXX@@@XX+OOOoooOo+++++++@@@@@@@@#@######%#%#%#%->%%%&-&#O&X&",
"&%oXXXo#@@Xo&&&%%%%%%%%&&&&&&&&&&&&&&&&&&&&&&****--->%%%%&OO&&X&",
"&%%%%###@@X%**&&&&&&&&&&&&&*******--------------:>>>>%%%%%&&&&X&",
"&%%%%####@@+++OOOooooOo++++++@@@@@@@@@##@########%#%%%%%%%%%&&X&",
"&%%%%####@@.+++.OOo.ooO.+++.++@.@@@.@@@.#@#.###.%#%.%#%%%%%%%&X&",
"&&#**@###@@@+++OOOOooooO+++++++@@@@@@@@@@#@########%#%%%%--&%%X&",
"&&*,:#o###@@@+++OOOooooOo+++++++@+@@@@@@@@#@######%#%#%#-<>&O%X&",
"&&*:%oX###@@@+++OOOOooooOO+++++++@+@@@@@@@@#@########%#%->-%O%X&",
"&&#ooXX####@@@+++OOOoooooO++++++++@+@@@@@@@@#@######%#%#%%%OO%X&",
"&&oXXXO####@@@+++OOOOooooOo++++++++@+@@@@@@@@#@########%#OOO%%X&",
"$$$$$$$$$$$$$$$$$$$$$$$$$$$$$$$$$$$$$$$$$$$$$$$$$$$$$$$$$$$$$$$$",
"                                                                "
};
